# Blender 3.4.1
# www.blender.org
mtllib player.mtl
o Cube
v 1.000000 1.000000 -1.000000
v 1.000000 -1.000000 -1.000000
v 1.000000 1.000000 1.000000
v 1.000000 -1.000000 1.000000
v -1.000000 1.000000 -0.153506
v -1.000000 -1.000000 -0.153506
v -1.000000 1.000000 0.153506
v -1.000000 -1.000000 0.153506
v 0.000000 -1.000000 -1.000000
v 0.000000 1.000000 1.000000
v 0.000000 -1.000000 1.000000
v 0.000000 1.000000 -1.000000
vn -0.0000 1.0000 -0.0000
vn -0.6461 -0.0000 0.7633
vn -1.0000 -0.0000 -0.0000
vn -0.0000 -1.0000 -0.0000
vn 1.0000 -0.0000 -0.0000
vn -0.0000 -0.0000 -1.0000
vn -0.6461 -0.0000 -0.7633
vn -0.0000 -0.0000 1.0000
vt 0.625000 0.500000
vt 0.375000 0.500000
vt 0.625000 0.750000
vt 0.375000 0.750000
vt 0.875000 0.500000
vt 0.625000 0.250000
vt 0.375000 0.250000
vt 0.125000 0.500000
vt 0.875000 0.750000
vt 0.625000 1.000000
vt 0.625000 0.000000
vt 0.375000 1.000000
vt 0.375000 0.000000
vt 0.125000 0.750000
vt 0.375000 0.375000
vt 0.250000 0.500000
vt 0.625000 0.875000
vt 0.750000 0.750000
vt 0.250000 0.750000
vt 0.375000 0.875000
vt 0.625000 0.375000
vt 0.750000 0.500000
s 0
usemtl Material
f 12/22/1 5/5/1 7/9/1 10/18/1
f 11/20/2 10/17/2 7/10/2 8/12/2
f 8/13/3 7/11/3 5/6/3 6/7/3
f 9/16/4 2/2/4 4/4/4 11/19/4
f 2/2/5 1/1/5 3/3/5 4/4/5
f 9/15/6 12/21/6 1/1/6 2/2/6
f 6/7/7 5/6/7 12/21/7 9/15/7
f 6/8/4 9/16/4 11/19/4 8/14/4
f 4/4/8 3/3/8 10/17/8 11/20/8
f 1/1/1 12/22/1 10/18/1 3/3/1
